<svg xmlns="http://www.w3.org/2000/svg" xmlns:svg="http://www.w3.org/2000/svg" xmlns:xlink="http://www.w3.org/1999/xlink" version="1.0" height="607.0000340938569pt" width="879.5pt" viewBox="145.8985 293.0000000000001 887.5 613.0000340938569" ><defs><style type="text/css">
            @font-face {
                font-family: 'noto_regular';
                src: url('https://app.creately.com/diagram/assets/fonts/noto/noto-regular.woff') format('woff'),
                     url('https://app.creately.com/diagram/assets/fonts/noto/noto-regular.woff2') format('woff2');
                font-weight: normal;
                font-style: normal;
            }
        p {
            margin: 0;
        }
        </style></defs><defs><style>
            span{ display: inline-block; }
        </style></defs><g id="16a5822xs6"><g transform="translate(340.0000000000002 320) rotate(1.7927825715549902e-14)"><rect x="0" y="0" width="544.9999809265137" height="583.0000340938568" fill="rgba(255,255,255,1)" stroke="#cccccc" stroke-width="1.5" stroke-linecap="round" stroke-linejoin="round"/></g><g transform="translate(589.9999904632571, 330.0000000000001) rotate(0, 22.5, 0)" width="45" height="18"><text text-decoration="none" x="0.5" fill="rgb(84, 84, 84)" font-size="10pt" font-family="noto_regular"  y="17">System</text><text text-decoration="none" x="44.5" fill="#4b4b4b" font-size="10pt" font-family="noto_regular"  y="17"></text></g><g transform="translate(525.4999904632571, 296.0000000000001) rotate(0, 87, 19)" width="174" height="19"><text text-decoration="none" x="8.5" fill="rgb(75, 75, 75)" font-size="10pt" font-family="Lato"  y="17">Gym&#160;</text><text text-decoration="none" x="39.5" fill="rgb(75, 75, 75)" font-size="10pt" font-family="Lato"  y="17">management&#160;</text><text text-decoration="none" x="122.5" fill="rgb(75, 75, 75)" font-size="10pt" font-family="Lato"  y="17">system</text><text text-decoration="none" x="165.5" fill="#4b4b4b" font-size="10pt" font-family="noto_regular"  y="17"></text></g></g><g id="58izef1uqx"><g transform="translate(165 395)"><ellipse cx="20.3985" cy="10.10075" rx="10.19925" ry="10.10075" fill="rgba(255,255,255,1)" stroke="#ea5b67" stroke-width="1.5" stroke-linecap="round" stroke-linejoin="round"/><path d="M 20.3985,20.2015 L 20.3985,48.483599999999996 L 40.797,80.806 M 20.3985,48.483599999999996 L 0,80.806 M 2.03985,30.30225 L 38.757149999999996,30.30225" fill="none" stroke="#ea5b67" stroke-width="1.5" stroke-linecap="round" stroke-linejoin="round"/><rect x="0" y="0" width="40.797" height="80.806" fill="rgba(255,255,255,0.01)" stroke="rgba(255,255,255,0.01)" stroke-width="1.5" stroke-linecap="round" stroke-linejoin="round"/></g><g transform="translate(164.3985, 480.806) rotate(0, 21, 0)" width="42" height="19"><text text-decoration="none" x="1.5" fill="rgb(75, 75, 75)" font-size="10pt" font-family="Lato"  y="17">Admin</text><text text-decoration="none" x="40.5" fill="#4b4b4b" font-size="10pt" font-family="noto_regular"  y="17"></text></g></g><g id="1qswnxbkyw"><g transform="translate(155 695)"><ellipse cx="20.3985" cy="10.10075" rx="10.19925" ry="10.10075" fill="rgba(255,255,255,1)" stroke="#ea5b67" stroke-width="1.5" stroke-linecap="round" stroke-linejoin="round"/><path d="M 20.3985,20.2015 L 20.3985,48.483599999999996 L 40.797,80.806 M 20.3985,48.483599999999996 L 0,80.806 M 2.03985,30.30225 L 38.757149999999996,30.30225" fill="none" stroke="#ea5b67" stroke-width="1.5" stroke-linecap="round" stroke-linejoin="round"/><rect x="0" y="0" width="40.797" height="80.806" fill="rgba(255,255,255,0.01)" stroke="rgba(255,255,255,0.01)" stroke-width="1.5" stroke-linecap="round" stroke-linejoin="round"/></g><g transform="translate(150.8985, 780.806) rotate(0, 24.5, 0)" width="49" height="35"><text text-decoration="none" x="2.5" fill="rgb(75, 75, 75)" font-size="10pt" font-family="Lato"  y="14">System&#160;</text><text text-decoration="none" x="11.5" fill="rgb(75, 75, 75)" font-size="10pt" font-family="Lato"  y="36">user</text><text text-decoration="none" x="37.5" fill="#4b4b4b" font-size="10pt" font-family="noto_regular"  y="36"></text></g></g><g id="2hpew7scyj"><g transform="translate(965 410)"><ellipse cx="20.3985" cy="10.10075" rx="10.19925" ry="10.10075" fill="rgba(255,255,255,1)" stroke="#ea5b67" stroke-width="1.5" stroke-linecap="round" stroke-linejoin="round"/><path d="M 20.3985,20.2015 L 20.3985,48.483599999999996 L 40.797,80.806 M 20.3985,48.483599999999996 L 0,80.806 M 2.03985,30.30225 L 38.757149999999996,30.30225" fill="none" stroke="#ea5b67" stroke-width="1.5" stroke-linecap="round" stroke-linejoin="round"/><rect x="0" y="0" width="40.797" height="80.806" fill="rgba(255,255,255,0.01)" stroke="rgba(255,255,255,0.01)" stroke-width="1.5" stroke-linecap="round" stroke-linejoin="round"/></g><g transform="translate(959.8985, 495.806) rotate(0, 25.5, 0)" width="51" height="19"><text text-decoration="none" x="1.5" fill="rgb(75, 75, 75)" font-size="10pt" font-family="Lato"  y="17">Trainers</text><text text-decoration="none" x="49.5" fill="#4b4b4b" font-size="10pt" font-family="noto_regular"  y="17"></text></g></g><g id="3omm8161lq"><g transform="translate(980 740)"><ellipse cx="20.3985" cy="10.10075" rx="10.19925" ry="10.10075" fill="rgba(255,255,255,1)" stroke="#ea5b67" stroke-width="1.5" stroke-linecap="round" stroke-linejoin="round"/><path d="M 20.3985,20.2015 L 20.3985,48.483599999999996 L 40.797,80.806 M 20.3985,48.483599999999996 L 0,80.806 M 2.03985,30.30225 L 38.757149999999996,30.30225" fill="none" stroke="#ea5b67" stroke-width="1.5" stroke-linecap="round" stroke-linejoin="round"/><rect x="0" y="0" width="40.797" height="80.806" fill="rgba(255,255,255,0.01)" stroke="rgba(255,255,255,0.01)" stroke-width="1.5" stroke-linecap="round" stroke-linejoin="round"/></g><g transform="translate(970.3985, 825.806) rotate(0, 30, 0)" width="60" height="19"><text text-decoration="none" x="1.5" fill="rgb(75, 75, 75)" font-size="10pt" font-family="Lato"  y="17">Members</text><text text-decoration="none" x="58.5" fill="#4b4b4b" font-size="10pt" font-family="noto_regular"  y="17"></text></g></g><g id="213ftqmipl"><g transform="translate(380 350)"><ellipse cx="85.00000035762787" cy="20.00000160932541" rx="85.00000035762787" ry="20.00000160932541" fill="rgba(26,188,156,1)" stroke="#1abc9c" stroke-width="1.5" stroke-linecap="round" stroke-linejoin="round"/></g><g transform="translate(420.00000035762787, 360.5000016093254) rotate(0, 45, 9.5)" width="90" height="19"><text text-decoration="none" x="3.5" fill="rgb(255, 255, 255)" font-size="10pt" font-family="Lato"  y="17">Manage&#160;</text><text text-decoration="none" x="54.5" fill="rgb(255, 255, 255)" font-size="10pt" font-family="Lato"  y="17">users</text><text text-decoration="none" x="86.5" fill="#4b4b4b" font-size="10pt" font-family="noto_regular"  y="17"></text></g></g><g id="1t5v3lew59"><g transform="translate(385 410)"><ellipse cx="87.49999749660492" cy="22.500000447034836" rx="87.49999749660492" ry="22.500000447034836" fill="rgba(26,188,156,1)" stroke="#1abc9c" stroke-width="1.5" stroke-linecap="round" stroke-linejoin="round"/></g><g transform="translate(426.9999974966049, 423.00000044703484) rotate(0, 45.5, 9.5)" width="91" height="19"><text text-decoration="none" x="4" fill="rgb(255, 255, 255)" font-size="10pt" font-family="Lato"  y="17">Manage&#160;</text><text text-decoration="none" x="55" fill="rgb(255, 255, 255)" font-size="10pt" font-family="Lato"  y="17">shifts</text><text text-decoration="none" x="87" fill="#4b4b4b" font-size="10pt" font-family="noto_regular"  y="17"></text></g></g><g id="1iu8ww3zk0"><g transform="translate(390 465)"><ellipse cx="87.5000029206276" cy="22.500000447034836" rx="87.5000029206276" ry="22.500000447034836" fill="rgba(26,188,156,1)" stroke="#1abc9c" stroke-width="1.5" stroke-linecap="round" stroke-linejoin="round"/></g><g transform="translate(411.0000029206276, 478.00000044703484) rotate(0, 66.5, 9.5)" width="133" height="19"><text text-decoration="none" x="6.5" fill="rgb(255, 255, 255)" font-size="10pt" font-family="Lato"  y="17">Manage&#160;</text><text text-decoration="none" x="57.5" fill="rgb(255, 255, 255)" font-size="10pt" font-family="Lato"  y="17">gym&#160;</text><text text-decoration="none" x="86.5" fill="rgb(255, 255, 255)" font-size="10pt" font-family="Lato"  y="17">faculty</text><text text-decoration="none" x="126.5" fill="#4b4b4b" font-size="10pt" font-family="noto_regular"  y="17"></text></g></g><g id="664u8gie8v"><g transform="translate(635 345)"><ellipse cx="87.5000029206276" cy="22.500000447034836" rx="87.5000029206276" ry="22.500000447034836" fill="rgba(26,188,156,1)" stroke="#1abc9c" stroke-width="1.5" stroke-linecap="round" stroke-linejoin="round"/></g><g transform="translate(670.0000029206276, 358.00000044703484) rotate(0, 52.5, 9.5)" width="105" height="19"><text text-decoration="none" x="5" fill="rgb(255, 255, 255)" font-size="10pt" font-family="Lato"  y="17">Create&#160;</text><text text-decoration="none" x="47" fill="rgb(255, 255, 255)" font-size="10pt" font-family="Lato"  y="17">schedule</text><text text-decoration="none" x="100" fill="#4b4b4b" font-size="10pt" font-family="noto_regular"  y="17"></text></g></g><g id="5db43kqfm8"><g transform="translate(635 405)"><ellipse cx="87.49999207258224" cy="20.00000160932541" rx="87.49999207258224" ry="20.00000160932541" fill="rgba(26,188,156,1)" stroke="#1abc9c" stroke-width="1.5" stroke-linecap="round" stroke-linejoin="round"/></g><g transform="translate(664.4999920725822, 415.5000016093254) rotate(0, 58, 9.5)" width="116" height="19"><text text-decoration="none" x="5.5" fill="rgb(255, 255, 255)" font-size="10pt" font-family="Lato"  y="17">Create&#160;</text><text text-decoration="none" x="47.5" fill="rgb(255, 255, 255)" font-size="10pt" font-family="Lato"  y="17">diet&#160;</text><text text-decoration="none" x="73.5" fill="rgb(255, 255, 255)" font-size="10pt" font-family="Lato"  y="17">charts</text><text text-decoration="none" x="110.5" fill="#4b4b4b" font-size="10pt" font-family="noto_regular"  y="17"></text></g></g><g id="2gm1voejdw"><g transform="translate(640 450)"><ellipse cx="90.00000548362732" cy="24.999999284744263" rx="90.00000548362732" ry="24.999999284744263" fill="rgba(26,188,156,1)" stroke="#1abc9c" stroke-width="1.5" stroke-linecap="round" stroke-linejoin="round"/></g><g transform="translate(673.0000054836273, 465.49999928474426) rotate(0, 57, 9.5)" width="114" height="19"><text text-decoration="none" x="3.5" fill="rgb(255, 255, 255)" font-size="10pt" font-family="Lato"  y="17">Add&#160;</text><text text-decoration="none" x="30.5" fill="rgb(255, 255, 255)" font-size="10pt" font-family="Lato"  y="17">workout&#160;</text><text text-decoration="none" x="84.5" fill="rgb(255, 255, 255)" font-size="10pt" font-family="Lato"  y="17">plan</text><text text-decoration="none" x="110.5" fill="#4b4b4b" font-size="10pt" font-family="noto_regular"  y="17"></text></g></g><g id="11xkvdzrzi"><g><path d="M 820,475 L 965,440" fill="none" stroke="#b7b7b7" stroke-width="1.5" stroke-linecap="round" stroke-linejoin="round"/></g></g><g id="ppiewy4hvl"><g><path d="M 810,425 L 965,440" fill="none" stroke="#b7b7b7" stroke-width="1.5" stroke-linecap="round" stroke-linejoin="round"/></g></g><g id="1k9655q0tu"><g><path d="M 810,370 L 965,440" fill="none" stroke="#b7b7b7" stroke-width="1.5" stroke-linecap="round" stroke-linejoin="round"/></g></g><g id="md0ja26ucc"><g><path d="M 380,370 L 205,425" fill="none" stroke="#b7b7b7" stroke-width="1.5" stroke-linecap="round" stroke-linejoin="round"/></g></g><g id="5e0xxob98v"><g><path d="M 385,435 L 205,425" fill="none" stroke="#b7b7b7" stroke-width="1.5" stroke-linecap="round" stroke-linejoin="round"/></g></g><g id="cufvoch9d7"><g><path d="M 390,490 L 205,425" fill="none" stroke="#b7b7b7" stroke-width="1.5" stroke-linecap="round" stroke-linejoin="round"/></g></g><g id="zvco6pvdlv"><g transform="translate(510 525)"><ellipse cx="92.50000262260437" cy="24.999999284744263" rx="92.50000262260437" ry="24.999999284744263" fill="rgba(26,188,156,1)" stroke="#1abc9c" stroke-width="1.5" stroke-linecap="round" stroke-linejoin="round"/></g><g transform="translate(529.5000026226044, 532.4999992847443) rotate(0, 73, 17.5)" width="146" height="35"><text text-decoration="none" x="4.5" fill="rgb(255, 255, 255)" font-size="10pt" font-family="Lato"  y="14">Login&#160;</text><text text-decoration="none" x="40.5" fill="rgb(255, 255, 255)" font-size="10pt" font-family="Lato"  y="14">and&#160;</text><text text-decoration="none" x="66.5" fill="rgb(255, 255, 255)" font-size="10pt" font-family="Lato"  y="14">Logout&#160;</text><text text-decoration="none" x="112.5" fill="rgb(255, 255, 255)" font-size="10pt" font-family="Lato"  y="14">from&#160;</text><text text-decoration="none" x="51.5" fill="rgb(255, 255, 255)" font-size="10pt" font-family="Lato"  y="36">system</text><text text-decoration="none" x="94.5" fill="#4b4b4b" font-size="10pt" font-family="noto_regular"  y="36"></text></g></g><g id="4pizg7bki1"><g transform="translate(510 585)"><ellipse cx="95.00001060962677" cy="22.500000447034836" rx="95.00001060962677" ry="22.500000447034836" fill="rgba(26,188,156,1)" stroke="#1abc9c" stroke-width="1.5" stroke-linecap="round" stroke-linejoin="round"/></g><g transform="translate(546.5000106096268, 598.0000004470348) rotate(0, 58.5, 9.5)" width="117" height="19"><text text-decoration="none" x="4.5" fill="rgb(255, 255, 255)" font-size="10pt" font-family="Lato"  y="17">Update&#160;</text><text text-decoration="none" x="51.5" fill="rgb(255, 255, 255)" font-size="10pt" font-family="Lato"  y="17">my&#160;</text><text text-decoration="none" x="73.5" fill="rgb(255, 255, 255)" font-size="10pt" font-family="Lato"  y="17">profile</text><text text-decoration="none" x="112.5" fill="#4b4b4b" font-size="10pt" font-family="noto_regular"  y="17"></text></g></g><g id="1kqfnqfysk"><g transform="translate(510 635) rotate(-2.142689528874416e-15)"><ellipse cx="94.99999976158142" cy="24.999999284744263" rx="94.99999976158142" ry="24.999999284744263" fill="rgba(26,188,156,1)" stroke="#1abc9c" stroke-width="1.5" stroke-linecap="round" stroke-linejoin="round"/></g><g transform="translate(519.9999997615814, 650.4999992847443) rotate(0, 85, 9.5)" width="170" height="19"><text text-decoration="none" x="6.5" fill="rgb(255, 255, 255)" font-size="10pt" font-family="Lato"  y="17">Change&#160;</text><text text-decoration="none" x="54.5" fill="rgb(255, 255, 255)" font-size="10pt" font-family="Lato"  y="17">account&#160;</text><text text-decoration="none" x="105.5" fill="rgb(255, 255, 255)" font-size="10pt" font-family="Lato"  y="17">password</text><text text-decoration="none" x="163.5" fill="#4b4b4b" font-size="10pt" font-family="noto_regular"  y="17"></text></g></g><g id="2at5ybdv53"><g><path d="M 510,550 L 205,425" fill="none" stroke="#b7b7b7" stroke-width="1.5" stroke-linecap="round" stroke-linejoin="round"/></g></g><g id="jkxg5qgw58"><g><path d="M 510,610 L 205,425" fill="none" stroke="#b7b7b7" stroke-width="1.5" stroke-linecap="round" stroke-linejoin="round"/></g></g><g id="264kfn9n6f"><g><path d="M 510,660 L 205,425" fill="none" stroke="#b7b7b7" stroke-width="1.5" stroke-linecap="round" stroke-linejoin="round"/></g></g><g id="4z5ylsrqdr"><g><path d="M 695,550 L 965,440" fill="none" stroke="#b7b7b7" stroke-width="1.5" stroke-linecap="round" stroke-linejoin="round"/></g></g><g id="y98jm2j5qy"><g><path d="M 700,610 L 965,440" fill="none" stroke="#b7b7b7" stroke-width="1.5" stroke-linecap="round" stroke-linejoin="round"/></g></g><g id="1u4e0337cs"><g><path d="M 700,660 L 965,440" fill="none" stroke="#b7b7b7" stroke-width="1.5" stroke-linecap="round" stroke-linejoin="round"/></g></g><g id="1mqafh2p0r"><g transform="translate(395 700)"><ellipse cx="85.00000035762787" cy="22.500000447034836" rx="85.00000035762787" ry="22.500000447034836" fill="rgba(26,188,156,1)" stroke="#1abc9c" stroke-width="1.5" stroke-linecap="round" stroke-linejoin="round"/></g><g transform="translate(431.00000035762787, 713.0000004470348) rotate(0, 49, 9.5)" width="98" height="19"><text text-decoration="none" x="3.5" fill="rgb(255, 255, 255)" font-size="10pt" font-family="Lato"  y="17">Manage&#160;</text><text text-decoration="none" x="54.5" fill="rgb(255, 255, 255)" font-size="10pt" font-family="Lato"  y="17">trainer</text><text text-decoration="none" x="94.5" fill="#4b4b4b" font-size="10pt" font-family="noto_regular"  y="17"></text></g></g><g id="5657wuty4c"><g transform="translate(395 760)"><ellipse cx="90.00000005960464" cy="24.999999284744263" rx="90.00000005960464" ry="24.999999284744263" fill="rgba(26,188,156,1)" stroke="#1abc9c" stroke-width="1.5" stroke-linecap="round" stroke-linejoin="round"/></g><g transform="translate(430.00000005960464, 775.4999992847443) rotate(0, 55, 9.5)" width="110" height="19"><text text-decoration="none" x="5" fill="rgb(255, 255, 255)" font-size="10pt" font-family="Lato"  y="17">Manage&#160;</text><text text-decoration="none" x="56" fill="rgb(255, 255, 255)" font-size="10pt" font-family="Lato"  y="17">package</text><text text-decoration="none" x="105" fill="#4b4b4b" font-size="10pt" font-family="noto_regular"  y="17"></text></g></g><g id="1um7ret5y2"><g transform="translate(390 830) rotate(1.100299994383294e-15)"><ellipse cx="92.50000262260437" cy="24.999999284744263" rx="92.50000262260437" ry="24.999999284744263" fill="rgba(26,188,156,1)" stroke="#1abc9c" stroke-width="1.5" stroke-linecap="round" stroke-linejoin="round"/></g><g transform="translate(422.50000262260437, 845.4999992847443) rotate(0, 60, 9.5)" width="120" height="19"><text text-decoration="none" x="4.5" fill="rgb(255, 255, 255)" font-size="10pt" font-family="Lato"  y="17">Manage&#160;</text><text text-decoration="none" x="55.5" fill="rgb(255, 255, 255)" font-size="10pt" font-family="Lato"  y="17">payments</text><text text-decoration="none" x="115.5" fill="#4b4b4b" font-size="10pt" font-family="noto_regular"  y="17"></text></g></g><g id="5wlgaxqww4"><g transform="translate(660 710)"><ellipse cx="82.50000321865082" cy="22.500000447034836" rx="82.50000321865082" ry="22.500000447034836" fill="rgba(26,188,156,1)" stroke="#1abc9c" stroke-width="1.5" stroke-linecap="round" stroke-linejoin="round"/></g><g transform="translate(686.0000032186508, 723.0000004470348) rotate(0, 56.5, 9.5)" width="113" height="19"><text text-decoration="none" x="5" fill="rgb(255, 255, 255)" font-size="10pt" font-family="Lato"  y="17">View&#160;</text><text text-decoration="none" x="36" fill="rgb(255, 255, 255)" font-size="10pt" font-family="Lato"  y="17">equipments</text><text text-decoration="none" x="108" fill="#4b4b4b" font-size="10pt" font-family="noto_regular"  y="17"></text></g></g><g id="1zto3dfhj8"><g transform="translate(675 770)"><ellipse cx="77.50000351667404" cy="24.999999284744263" rx="77.50000351667404" ry="24.999999284744263" fill="rgba(26,188,156,1)" stroke="#1abc9c" stroke-width="1.5" stroke-linecap="round" stroke-linejoin="round"/></g><g transform="translate(708.000003516674, 785.4999992847443) rotate(0, 44.5, 9.5)" width="89" height="19"><text text-decoration="none" x="3.5" fill="rgb(255, 255, 255)" font-size="10pt" font-family="Lato"  y="17">View&#160;</text><text text-decoration="none" x="34.5" fill="rgb(255, 255, 255)" font-size="10pt" font-family="Lato"  y="17">workout</text><text text-decoration="none" x="85.5" fill="#4b4b4b" font-size="10pt" font-family="noto_regular"  y="17"></text></g></g><g id="1udwm5by6e"><g transform="translate(670 830)"><ellipse cx="80.00000065565109" cy="24.999999284744263" rx="80.00000065565109" ry="24.999999284744263" fill="rgba(26,188,156,1)" stroke="#1abc9c" stroke-width="1.5" stroke-linecap="round" stroke-linejoin="round"/></g><g transform="translate(709.5000006556511, 845.4999992847443) rotate(0, 40.5, 9.5)" width="81" height="19"><text text-decoration="none" x="5.5" fill="rgb(255, 255, 255)" font-size="10pt" font-family="Lato"  y="17">View&#160;</text><text text-decoration="none" x="36.5" fill="rgb(255, 255, 255)" font-size="10pt" font-family="Lato"  y="17">gallery</text><text text-decoration="none" x="75.5" fill="#4b4b4b" font-size="10pt" font-family="noto_regular"  y="17"></text></g></g><g id="8cmwsjpo9f"><g><path d="M 510,550 L 210,725" fill="none" stroke="#b7b7b7" stroke-width="1.5" stroke-linecap="round" stroke-linejoin="round"/></g></g><g id="2q0fkatj1i"><g><path d="M 510,610 L 210,725" fill="none" stroke="#b7b7b7" stroke-width="1.5" stroke-linecap="round" stroke-linejoin="round"/></g></g><g id="1jftty3jks"><g><path d="M 510,660 L 195,725" fill="none" stroke="#b7b7b7" stroke-width="1.5" stroke-linecap="round" stroke-linejoin="round"/></g></g><g id="42sc84vb52"><g><path d="M 395,725 L 210,725" fill="none" stroke="#b7b7b7" stroke-width="1.5" stroke-linecap="round" stroke-linejoin="round"/></g></g><g id="2bx8dtzwvr"><g><path d="M 395,785 L 210,725" fill="none" stroke="#b7b7b7" stroke-width="1.5" stroke-linecap="round" stroke-linejoin="round"/></g></g><g id="256s971k8i"><g><path d="M 390,855 L 210,725" fill="none" stroke="#b7b7b7" stroke-width="1.5" stroke-linecap="round" stroke-linejoin="round"/></g></g><g id="2n5du5n49g"><g><path d="M 695,550 L 980,770" fill="none" stroke="#b7b7b7" stroke-width="1.5" stroke-linecap="round" stroke-linejoin="round"/></g></g><g id="7kt7fd48tt"><g><path d="M 700,610 L 980,770" fill="none" stroke="#b7b7b7" stroke-width="1.5" stroke-linecap="round" stroke-linejoin="round"/></g></g><g id="13h3mgrvqa"><g><path d="M 700,660 L 980,770" fill="none" stroke="#b7b7b7" stroke-width="1.5" stroke-linecap="round" stroke-linejoin="round"/></g></g><g id="3l9cohltzq"><g><path d="M 825,735 L 980,770" fill="none" stroke="#b7b7b7" stroke-width="1.5" stroke-linecap="round" stroke-linejoin="round"/></g></g><g id="7z8sgcdm70"><g><path d="M 830,795 L 980,770" fill="none" stroke="#b7b7b7" stroke-width="1.5" stroke-linecap="round" stroke-linejoin="round"/></g></g><g id="277nmd2wfn"><g><path d="M 830,855 L 980,770" fill="none" stroke="#b7b7b7" stroke-width="1.5" stroke-linecap="round" stroke-linejoin="round"/></g></g></svg>